<svg xmlns="http://www.w3.org/2000/svg" width="41.156" height="41.195" viewBox="0 0 41.156 41.195">
  <g id="comment" transform="translate(0.001 0.024)">
    <path id="Path_49" data-name="Path 49" d="M41.155,19.3A20.6,20.6,0,1,0,20.607,41.171H32.581A8.582,8.582,0,0,0,41.155,32.6ZM37.725,32.6a5.144,5.144,0,0,1-5.144,5.144H20.607A17.218,17.218,0,0,1,7.787,32.009a17.005,17.005,0,0,1-4.246-13.4A17.221,17.221,0,0,1,18.385,3.587a18.115,18.115,0,0,1,2.229-.141A17.012,17.012,0,0,1,31.552,7.391a17.218,17.218,0,0,1,6.173,12.075Z" transform="translate(0)" fill="#fff"/>
    <path id="Path_50" data-name="Path 50" d="M9,11h8a2,2,0,0,0,0-4H9a2,2,0,1,0,0,4Z" transform="translate(6.134 4.546)" fill="#fff"/>
    <path id="Path_51" data-name="Path 51" d="M22.048,11H8.672a1.672,1.672,0,0,0,0,3.344H22.048a1.672,1.672,0,1,0,0-3.344Z" transform="translate(5.572 7.923)" fill="#fff"/>
    <path id="Path_52" data-name="Path 52" d="M26.823,15H9.2a2.2,2.2,0,0,0,0,4.405h17.62a2.2,2.2,0,1,0,0-4.405Z" transform="translate(4.715 10.427)" fill="#fff"/>
  </g>
</svg>
