<svg xmlns="http://www.w3.org/2000/svg" xmlns:xlink="http://www.w3.org/1999/xlink" width="48.876" height="48.876" viewBox="0 0 48.876 48.876">
  <defs>
    <clipPath id="clip-path">
      <rect id="Rectangle_1229" data-name="Rectangle 1229" width="48.876" height="48.876" transform="translate(114 294)" fill="#fff"/>
    </clipPath>
  </defs>
  <g id="Group_368" data-name="Group 368" transform="translate(-114 -294)" clip-path="url(#clip-path)">
    <path id="Path_12914" data-name="Path 12914" d="M126.777,294.75a1.528,1.528,0,0,1,1.527,1.527v3.207a1.527,1.527,0,0,1-3.055,0v-3.207A1.528,1.528,0,0,1,126.777,294.75Z" transform="translate(11.66 0.777)" fill="#fff" fill-rule="evenodd"/>
    <path id="Path_12915" data-name="Path 12915" d="M136.436,298.273a1.528,1.528,0,0,1,0,2.161l-2.269,2.267a1.526,1.526,0,0,1-2.159-2.159l2.267-2.269A1.528,1.528,0,0,1,136.436,298.273Z" transform="translate(18.202 3.965)" fill="#fff" fill-rule="evenodd"/>
    <path id="Path_12916" data-name="Path 12916" d="M134.175,306.777a1.528,1.528,0,0,1,1.527-1.527h3.207a1.527,1.527,0,0,1,0,3.055H135.7A1.528,1.528,0,0,1,134.175,306.777Z" transform="translate(20.911 11.66)" fill="#fff" fill-rule="evenodd"/>
    <path id="Path_12917" data-name="Path 12917" d="M132.009,312.009a1.525,1.525,0,0,1,2.159,0l2.269,2.267a1.528,1.528,0,0,1-2.161,2.161l-2.267-2.269A1.525,1.525,0,0,1,132.009,312.009Z" transform="translate(18.202 18.202)" fill="#fff" fill-rule="evenodd"/>
    <path id="Path_12918" data-name="Path 12918" d="M126.777,314.175A1.528,1.528,0,0,1,128.3,315.7v3.208a1.527,1.527,0,0,1-3.055,0V315.7A1.528,1.528,0,0,1,126.777,314.175Z" transform="translate(11.66 20.911)" fill="#fff" fill-rule="evenodd"/>
    <path id="Path_12919" data-name="Path 12919" d="M122.7,312.009a1.525,1.525,0,0,1,0,2.159l-2.267,2.269a1.528,1.528,0,0,1-2.161-2.161l2.269-2.267A1.525,1.525,0,0,1,122.7,312.009Z" transform="translate(3.965 18.202)" fill="#fff" fill-rule="evenodd"/>
    <path id="Path_12920" data-name="Path 12920" d="M114.75,306.777a1.528,1.528,0,0,1,1.527-1.527h3.207a1.527,1.527,0,0,1,0,3.055h-3.207A1.528,1.528,0,0,1,114.75,306.777Z" transform="translate(0.777 11.66)" fill="#fff" fill-rule="evenodd"/>
    <path id="Path_12921" data-name="Path 12921" d="M118.273,298.273a1.528,1.528,0,0,1,2.161,0l2.267,2.269a1.526,1.526,0,1,1-2.159,2.159l-2.269-2.267A1.528,1.528,0,0,1,118.273,298.273Z" transform="translate(3.965 3.965)" fill="#fff" fill-rule="evenodd"/>
    <path id="Path_12922" data-name="Path 12922" d="M119.25,313A13.746,13.746,0,1,1,133,326.743,13.746,13.746,0,0,1,119.25,313Z" transform="translate(5.442 5.442)" fill="#fff" fill-rule="evenodd"/>
  </g>
</svg>
