<svg xmlns="http://www.w3.org/2000/svg" width="32.823" height="38.616" viewBox="0 0 32.823 38.616">
  <path id="Path_12913" data-name="Path 12913" d="M520.861,236.122a7.5,7.5,0,0,0,2.052,5.5,6.493,6.493,0,0,1,1.41,4.46,6.976,6.976,0,0,1-1.666,4.591,8.755,8.755,0,0,1-5.6,2.728c-3.033.259-6.068.477-9.146.477a80.5,80.5,0,0,1-9.144-.477,8.745,8.745,0,0,1-5.6-2.728,6.978,6.978,0,0,1-1.668-4.591,6.5,6.5,0,0,1,1.41-4.46,7.331,7.331,0,0,0,2.054-5.5V235.3a10.861,10.861,0,0,1,2.477-7.449A13.658,13.658,0,0,1,507.827,223H508a13.593,13.593,0,0,1,10.556,5.068,10.7,10.7,0,0,1,2.307,7.231Zm-18.6,21.75c0-.973.892-1.417,1.717-1.608a49.761,49.761,0,0,1,7.812,0c.826.191,1.718.635,1.718,1.608a3.006,3.006,0,0,1-1.342,2.267,7,7,0,0,1-3.307,1.411,7.222,7.222,0,0,1-1.946,0,6.974,6.974,0,0,1-3.309-1.413A3,3,0,0,1,502.262,257.872Z" transform="translate(-491.5 -223)" fill="#fff" fill-rule="evenodd"/>
</svg>
