<svg xmlns="http://www.w3.org/2000/svg" width="44.391" height="44.391" viewBox="0 0 44.391 44.391">
  <path id="Path_2265" data-name="Path 2265" d="M908.9,299.493h6.144a1.7,1.7,0,0,0,0-3.4H908.9a1.7,1.7,0,0,0,0,3.4Zm13.442-11.777a3.743,3.743,0,0,1,3.125,1.518,4.9,4.9,0,0,1,.844,3.893l-2.107,14.86a5.7,5.7,0,0,1-5.611,4.961H894.4a5.7,5.7,0,0,1-5.633-5.3l-2.04-24.693-3.349-.588a1.7,1.7,0,0,1,.577-3.349l5.289.812a1.7,1.7,0,0,1,1.376,1.54l.422,5.074a1.362,1.362,0,0,0,1.352,1.27Zm-28.3,28.812a3.432,3.432,0,1,0,3.349,3.443A3.407,3.407,0,0,0,894.043,316.528Zm24.953,0a3.433,3.433,0,1,0,3.347,3.443A3.406,3.406,0,0,0,919,316.528Z" transform="translate(-882 -279)" fill="#fff" fill-rule="evenodd"/>
</svg>
