<svg xmlns="http://www.w3.org/2000/svg" width="39.938" height="37.94" viewBox="0 0 39.938 37.94">
  <path id="stethoscope" d="M39.938,14.227A4.835,4.835,0,0,0,35.524,9.5a4.978,4.978,0,0,0-5.441,3.639,4.707,4.707,0,0,0,3.2,5.543v6.614A9.744,9.744,0,0,1,23.3,34.778a9.744,9.744,0,0,1-9.985-9.485v-.126A11.276,11.276,0,0,0,23.3,14.227V7.9A8.13,8.13,0,0,0,14.977,0a1.624,1.624,0,0,0-1.664,1.581,1.624,1.624,0,0,0,1.664,1.581A4.872,4.872,0,0,1,19.969,7.9v6.323a8.12,8.12,0,0,1-8.321,7.9,8.12,8.12,0,0,1-8.321-7.9V7.9A4.872,4.872,0,0,1,8.321,3.162,1.624,1.624,0,0,0,9.985,1.581,1.624,1.624,0,0,0,8.321,0,8.13,8.13,0,0,0,0,7.9v6.323A11.276,11.276,0,0,0,9.985,25.167v.126c0,6.985,5.96,12.647,13.313,12.647S36.61,32.278,36.61,25.293V18.679A4.765,4.765,0,0,0,39.938,14.227Zm-4.992,1.581a1.583,1.583,0,1,1,1.664-1.581A1.624,1.624,0,0,1,34.946,15.808Z" fill="#fff"/>
</svg>
